<?xml version="1.0" encoding="UTF-8" standalone="no"?>
<svg
   xmlns:osb="http://www.openswatchbook.org/uri/2009/osb"
   xmlns:dc="http://purl.org/dc/elements/1.1/"
   xmlns:cc="http://creativecommons.org/ns#"
   xmlns:rdf="http://www.w3.org/1999/02/22-rdf-syntax-ns#"
   xmlns:svg="http://www.w3.org/2000/svg"
   xmlns="http://www.w3.org/2000/svg"
   xmlns:sodipodi="http://sodipodi.sourceforge.net/DTD/sodipodi-0.dtd"
   xmlns:inkscape="http://www.inkscape.org/namespaces/inkscape"
   width="793.7"
   height="1122.5"
   id="svg2"
   version="1.1"
   inkscape:version="0.48.5 r10040"
   sodipodi:docname="pimp_002.svg"
   inkscape:export-filename="/home/pierre-marie/workspace/sources/github.com/Tedimage38/logo/pimp_002_128.png"
   inkscape:export-xdpi="15.937269"
   inkscape:export-ydpi="15.937269">
  <metadata
     id="metadata14">
    <rdf:RDF>
      <cc:Work
         rdf:about="">
        <dc:format>image/svg+xml</dc:format>
        <dc:type
           rdf:resource="http://purl.org/dc/dcmitype/StillImage" />
        <dc:title></dc:title>
      </cc:Work>
    </rdf:RDF>
  </metadata>
  <defs
     id="defs12">
    <linearGradient
       id="linearGradient11940"
       osb:paint="solid">
      <stop
         style="stop-color:#000000;stop-opacity:1;"
         offset="0"
         id="stop11942" />
    </linearGradient>
  </defs>
  <sodipodi:namedview
     pagecolor="#ffffff"
     bordercolor="#666666"
     borderopacity="1"
     objecttolerance="10"
     gridtolerance="10"
     guidetolerance="10"
     inkscape:pageopacity="0"
     inkscape:pageshadow="2"
     inkscape:window-width="1920"
     inkscape:window-height="1134"
     id="namedview10"
     showgrid="false"
     inkscape:zoom="0.84097995"
     inkscape:cx="418.1303"
     inkscape:cy="536.27572"
     inkscape:window-x="0"
     inkscape:window-y="27"
     inkscape:window-maximized="1"
     inkscape:current-layer="svg2" />
  <path
     id="path6798"
     fill="#fff"
     d="m163.03 242.65c-34.039 0-61.724 27.688-61.724 61.728v473.22c0 34.034 27.684 61.722 61.724 61.722h473.28c34.039 0 61.724-27.688 61.724-61.722v-473.22c0-34.041-27.684-61.728-61.724-61.728h-473.28z" />
  <path
     id="path6800"
     d="m679.14 897.9c46.63 0 84.535-38.616 84.535-86.373v-550.08c0-47.685-37.905-86.381-84.535-86.381h-537.96c-46.63 0-84.463 38.695-84.463 86.381v550.08c0 47.757 37.833 86.373 84.463 86.373h537.96z"
     fill="#231f20" />
  <path
     id="path11163"
     d="m 368.11347,240.24959 c -1.1201,-1.17183 -2.48116,-1.75736 -4.08246,-1.75736 -0.64037,0 -1.20116,0.084 -1.68088,0.25116 l -49.95193,16.06893 c -1.20042,0.41835 -2.18124,1.16105 -2.94173,2.2281 -0.76048,1.06782 -1.14073,2.24966 -1.14073,3.54707 v 60.69861 c -3.48262,-1.63255 -7.32485,-2.44844 -11.52742,-2.44844 -1.801,0 -3.73243,0.21957 -5.79356,0.65872 -2.06186,0.43838 -4.13331,1.10788 -6.21433,2.00775 -2.08176,0.89986 -3.80243,2.16646 -5.1635,3.79747 -1.36107,1.63177 -2.04123,3.49468 -2.04123,5.58718 0,2.09327 0.68016,3.95463 2.04123,5.58718 1.36107,1.63024 3.08174,2.89683 5.1635,3.7967 2.08176,0.89986 4.1532,1.56937 6.21433,2.00775 2.06113,0.43915 3.99256,0.65795 5.79356,0.65795 1.801,0 3.73169,-0.2188 5.79355,-0.65795 2.06187,-0.43838 4.13257,-1.10789 6.21433,-2.00775 2.08103,-0.89987 3.8017,-2.16646 5.16277,-3.7967 1.3618,-1.63255 2.04197,-3.49391 2.04197,-5.58718 v -44.50332 l 46.10969,-14.8763 v 33.70723 c -3.48335,-1.63177 -7.32485,-2.44843 -11.52816,-2.44843 -1.801,0 -3.73243,0.2188 -5.79356,0.65795 -2.06112,0.43837 -4.13183,1.10788 -6.21359,2.00775 -2.08176,0.89986 -3.80243,2.16646 -5.16424,3.799 -1.36033,1.63024 -2.04196,3.49392 -2.04196,5.58565 0,2.09326 0.68163,3.95463 2.04196,5.58718 1.36181,1.63178 3.08248,2.89837 5.16424,3.79747 2.08102,0.89986 4.15247,1.56937 6.21359,2.00852 2.06113,0.43914 3.99256,0.65795 5.79356,0.65795 1.801,0 3.73243,-0.21881 5.79356,-0.65795 2.06112,-0.43915 4.13183,-1.10866 6.21433,-2.00852 2.08102,-0.8991 3.8017,-2.16569 5.1635,-3.79747 1.3618,-1.63255 2.04123,-3.49392 2.04123,-5.58718 v -70.30206 c -7.4e-4,-1.67338 -0.55931,-3.0956 -1.68162,-4.26666 z"
     inkscape:connector-curvature="0"
     style="fill:#ffffff;fill-opacity:1" />
  <g
     id="g11998"
     transform="matrix(0.7369062,0,0,0.77043348,173.89715,365.43524)"
     style="fill:#ffffff">
    <path
       id="path12000"
       d="m 180.104,32.181 c -4.074,-4.073 -8.988,-6.11 -14.746,-6.11 h -18.25 l -4.154,-11.08 c -1.032,-2.661 -2.919,-4.956 -5.663,-6.885 -2.743,-1.928 -5.554,-2.893 -8.433,-2.893 H 87.143 c -2.879,0 -5.69,0.965 -8.433,2.893 -2.743,1.929 -4.63,4.224 -5.662,6.885 l -4.155,11.08 h -18.25 c -5.758,0 -10.673,2.037 -14.747,6.11 -4.073,4.074 -6.11,8.989 -6.11,14.747 v 73 c 0,5.758 2.037,10.674 6.11,14.746 4.074,4.074 8.989,6.111 14.747,6.111 h 114.714 c 5.758,0 10.672,-2.037 14.746,-6.111 4.073,-4.072 6.11,-8.988 6.11,-14.746 v -73 c 0.001,-5.758 -2.036,-10.673 -6.109,-14.747 z m -46.318,77.034 c -7.142,7.143 -15.737,10.714 -25.786,10.714 -10.049,0 -18.643,-3.571 -25.786,-10.714 C 75.071,102.073 71.5,93.477 71.5,83.429 71.5,73.38 75.072,64.786 82.214,57.643 89.356,50.5 97.951,46.929 108,46.929 c 10.049,0 18.643,3.572 25.786,10.714 7.143,7.142 10.714,15.737 10.714,25.786 0,10.048 -3.572,18.643 -10.714,25.786 z"
       inkscape:connector-curvature="0"
       style="fill:#ffffff" />
    <path
       id="path12002"
       d="m 108,59.964 c -6.464,0 -11.99,2.295 -16.58,6.885 -4.59,4.59 -6.885,10.116 -6.885,16.58 0,6.464 2.295,11.99 6.885,16.58 4.59,4.589 10.116,6.884 16.58,6.884 6.463,0 11.99,-2.295 16.58,-6.884 4.59,-4.59 6.885,-10.116 6.885,-16.58 0,-6.464 -2.295,-11.99 -6.885,-16.58 -4.59,-4.59 -10.117,-6.885 -16.58,-6.885 z"
       inkscape:connector-curvature="0"
       style="fill:#ffffff" />
  </g>
  <path
     id="path12107"
     d="m 233.48497,284.24194 c -0.0391,-2.25968 -0.21002,-5.11645 -0.5092,-8.56799 -0.30066,-3.45308 -0.73102,-6.53944 -1.29106,-9.25907 -0.64038,-3.054 -2.03165,-5.62802 -4.17237,-7.72051 -2.14145,-2.0925 -4.63293,-3.30593 -7.47591,-3.64107 -8.88635,-1.04548 -22.31426,-1.5686 -40.28519,-1.5686 -17.97093,0 -31.39957,0.52312 -40.28518,1.5686 -2.84224,0.33514 -5.32414,1.54857 -7.44496,3.64107 -2.12155,2.09172 -3.50251,4.66574 -4.14289,7.72051 -0.59984,2.7204 -1.05082,5.80676 -1.35075,9.25907 -0.29992,3.45154 -0.47014,6.30754 -0.50993,8.56799 -0.0405,2.25968 -0.0604,5.39766 -0.0604,9.41547 0,4.01704 0.0199,7.15579 0.0604,9.41547 0.0398,2.26045 0.21001,5.11645 0.50993,8.56799 0.29993,3.45308 0.73028,6.53944 1.29106,9.25907 0.64038,3.05477 2.03092,5.62878 4.17237,7.72051 2.14145,2.09173 4.63366,3.30593 7.47517,3.6403 8.88561,1.04625 22.31351,1.56937 40.28518,1.56937 17.97241,0 31.39884,-0.52312 40.28519,-1.56937 2.84225,-0.33437 5.32415,-1.54857 7.4457,-3.6403 2.12155,-2.09173 3.50178,-4.66651 4.14215,-7.72051 0.59984,-2.71963 1.05083,-5.80676 1.35149,-9.25907 0.29918,-3.45154 0.46941,-6.30831 0.5092,-8.56799 0.0405,-2.25968 0.0604,-5.39843 0.0604,-9.41547 0,-4.01781 -0.0199,-7.15579 -0.0604,-9.41547 z m -32.47988,12.80538 -30.7393,20.0852 c -0.56079,0.41834 -1.24169,0.62713 -2.04197,0.62713 -0.59984,0 -1.22032,-0.16718 -1.86069,-0.50155 -1.32054,-0.75349 -1.9808,-1.92454 -1.9808,-3.51472 v -40.17194 c 0,-1.58941 0.66026,-2.76124 1.9808,-3.51472 1.36107,-0.75425 2.66171,-0.71188 3.90266,0.12558 l 30.7393,20.08597 c 1.20042,0.71034 1.80026,1.84057 1.80026,3.38914 0,1.54857 -0.59984,2.6788 -1.80026,3.38991 z"
     inkscape:connector-curvature="0"
     style="fill:#ffffff" />
  <path
     sodipodi:type="arc"
     style="fill:#ffffff;fill-opacity:0;stroke:#ffffff;stroke-width:3;stroke-linecap:butt;stroke-miterlimit:4;stroke-opacity:1;stroke-dasharray:none"
     id="path12116"
     sodipodi:cx="-324.97418"
     sodipodi:cy="473.39246"
     sodipodi:rx="172.78705"
     sodipodi:ry="137.05251"
     d="m -152.18713,473.39246 a 172.78705,137.05251 0 1 1 -345.5741,0 172.78705,137.05251 0 1 1 345.5741,0 z"
     transform="matrix(1.0722186,0,0,1.106386,610.35658,-174.38225)" />
  <path
     sodipodi:type="arc"
     style="fill:#ffffff;fill-opacity:0;stroke:#ffffff;stroke-width:3;stroke-linecap:butt;stroke-miterlimit:4;stroke-opacity:1;stroke-dasharray:none"
     id="path12120"
     sodipodi:cx="171.10542"
     sodipodi:cy="556.21252"
     sodipodi:rx="11.350974"
     sodipodi:ry="11.350974"
     d="m 182.4564,556.21252 a 11.350974,11.350974 0 1 1 -22.70195,0 11.350974,11.350974 0 1 1 22.70195,0 z"
     transform="translate(188.70956,71.762914)" />
  <path
     sodipodi:type="arc"
     style="fill:#ffffff;fill-opacity:0;stroke:#ffffff;stroke-width:3;stroke-linecap:butt;stroke-miterlimit:4;stroke-opacity:1;stroke-dasharray:none"
     id="path12120-3"
     sodipodi:cx="171.10542"
     sodipodi:cy="556.21252"
     sodipodi:rx="11.350974"
     sodipodi:ry="11.350974"
     d="m 182.4564,556.21252 a 11.350974,11.350974 0 1 1 -22.70195,0 11.350974,11.350974 0 1 1 22.70195,0 z"
     transform="translate(133.39006,39.926402)" />
  <path
     sodipodi:type="arc"
     style="fill:#ffffff;fill-opacity:0;stroke:#ffffff;stroke-width:3;stroke-linecap:butt;stroke-miterlimit:4;stroke-opacity:1;stroke-dasharray:none"
     id="path12120-30"
     sodipodi:cx="171.10542"
     sodipodi:cy="556.21252"
     sodipodi:rx="11.350974"
     sodipodi:ry="11.350974"
     d="m 182.4564,556.21252 a 11.350974,11.350974 0 1 1 -22.70195,0 11.350974,11.350974 0 1 1 22.70195,0 z"
     transform="translate(109.43927,-13.291074)" />
  <path
     inkscape:connector-curvature="0"
     d="m 763.6733,455.50307 c -251.15537,7.81714 -368.5,127.8125 -368.5,127.8125 -1.23916,1.4419 -2,3.41555 -2,5.65625 0,2.8738 1.3762,5.3804 3.3125,6.8125 l 105.1875,58.09375 c 4.4931,2.6007 6.53125,5.97685 6.53125,10.90625 0,6.5464 -4.735,11.9375 -10.3125,11.9375 l -116.34375,-0.1875 c -2.1686,0 -3.96875,2.08025 -3.96875,4.59375 0,1.2567 0.31839,2.2287 1.09375,3.125 108.52934,100.93587 247.67874,136.60812 384.15625,139.65625 0.54273,-3.95527 0.84375,-7.98434 0.84375,-12.09375 l 0,-356.3125 z m -211.9375,103.25 c 13.788,0 24.78125,12.918 24.78125,28.875 0,15.87 -10.99325,28.78125 -24.78125,28.78125 -13.788,0 -24.9375,-12.91125 -24.9375,-28.78125 0,-15.957 11.1495,-28.875 24.9375,-28.875 z"
     id="path6800-5"
     style="fill:#ffffff" />
</svg>
