<?xml version="1.0" encoding="UTF-8" standalone="no"?>
<svg width="793.7" xmlns="http://www.w3.org/2000/svg" height="1122.5">
 <path id="path6798" fill="#fff" d="m163.03 242.65c-34.039 0-61.724 27.688-61.724 61.728v473.22c0 34.034 27.684 61.722 61.724 61.722h473.28c34.039 0 61.724-27.688 61.724-61.722v-473.22c0-34.041-27.684-61.728-61.724-61.728h-473.28z"/>
 <path id="path6800" fill="#231f20" d="m679.14 897.9c46.63 0 84.535-38.616 84.535-86.373v-550.08c0-47.685-37.905-86.381-84.535-86.381h-537.96c-46.63 0-84.463 38.695-84.463 86.381v550.08c0 47.757 37.833 86.373 84.463 86.373h537.96z"/>
 <g fill="#fff">
  <path id="path6802" d="m742.38 743.72c-147.57 2.5914-301.72-30.034-419.69-139.75-0.77536-0.8963-1.0851-1.8802-1.0851-3.1369 0-2.5135 1.7823-4.569 3.9509-4.569l116.35 0.1754c5.5775 0 10.303-5.3776 10.303-11.924 0-4.9294-2.0138-8.3293-6.5069-10.93l-105.19-58.091c-1.9363-1.4321-3.3305-3.9358-3.3305-6.8096 0-2.2407 0.77454-4.2085 2.0137-5.6504 0 0 128.12-131.05 403.19-128.18v368.86zm-246.64-207.6c13.788 0 24.788-12.908 24.788-28.778 0-15.957-11-28.865-24.788-28.865s-24.942 12.908-24.942 28.865c0 15.87 11.154 28.778 24.942 28.778"/>
  <path id="path6804" d="m609.93 206.14c-81.411 0.98315-161.02 38.826-250.32 118.66-3.3204-0.98315-10.652-3.1706-10.652-3.1706-14.179 0-25.73 12.519-25.73 27.97 0 0 0.9682 5.2025 1.5907 8.4468-2.7664 2.7856-72.142 73.801-72.142 73.801l-61.421 63.019c-5.741 5.7268-13.211 8.668-20.958 8.2174-7.8157-0.37683-14.94-4.0718-20.058-10.331-5.0494-6.0299-7.5391-13.641-7.5391-21.26 0-8.5942 3.1813-17.18 9.4064-23.44 0 0 4.6344-2.7938 8.1623-4.973 0.76076 5.7268 2.9047 23.218 2.9047 23.218l50.078-69.434-55.266 20.507c-14.525 5.4236-20.542 13.42-20.75 13.723-20.198 19.974-21.788 54.949-3.1129 77.488 18.814 22.62 50.908 24.202 71.658 3.7687l0.5533-0.7537 58.17-60.381s71.796-74.022 74.148-76.439c3.4587 0.98315 10.306 2.8675 10.306 2.8675 14.111 0 25.592-12.592 25.592-28.044 0 0-0.69159-4.0718-1.1757-7.013 86.322-77.488 161.92-114.2 237.52-115.18 15.562-0.14746 28.013 2.1137 48.417 6.8574l4.1503 0.9832v-22.088l-2.6979-0.6063c-21.096-4.8993-34.861-6.628-50.838-6.4068"/>
 </g>
</svg>
