<?xml version="1.0" encoding="UTF-8" standalone="no"?>
<svg viewBox="0 0 48 48" xmlns="http://www.w3.org/2000/svg" xmlns:xlink="http://www.w3.org/1999/xlink">
<defs>
<linearGradient id="linearGradient10020">
<stop offset="0" stop-color="#fff"/>
<stop offset="1" stop-color="#fff" stop-opacity="0"/>
</linearGradient>
<linearGradient gradientTransform="matrix(1.86887,0,0,1.5088,-20.39097,-10.01652)" gradientUnits="userSpaceOnUse" id="linearGradient1553" x1="27.2949" x2="20.9453" y1="25.4727" y2="11.0039">
<stop offset="0" stop-color="#f5f5f5"/>
<stop offset="1" stop-color="#e1e1e1"/>
</linearGradient>
<linearGradient gradientUnits="userSpaceOnUse" id="linearGradient9224" x2="0" y1="2.25751" y2="5.56648">
<stop offset="0" stop-color="#f0f0f0"/>
<stop offset="1" stop-color="#686868"/>
</linearGradient>
<linearGradient gradientUnits="userSpaceOnUse" id="linearGradient10012" x1="-22.97641" x2="-14.36027" y1="18.51605" y2="33.01604">
<stop offset="0" stop-color="#ff7171"/>
<stop offset="1" stop-color="#c00"/>
</linearGradient>
<linearGradient gradientUnits="userSpaceOnUse" id="linearGradient10014" x1="-16.38741" x2="-9.73527" y1="24.45355" y2="28.19554">
<stop offset="0" stop-color="#5b8ccb"/>
<stop offset="1" stop-color="#3465a4"/>
</linearGradient>
<linearGradient gradientUnits="userSpaceOnUse" id="linearGradient10016" x1="-17.86304" x2="-20.82165" y1="30.82751" y2="25.01501">
<stop offset="0" stop-color="#73d216"/>
<stop offset="1" stop-color="#d5f7b3"/>
</linearGradient>
<linearGradient gradientUnits="userSpaceOnUse" id="linearGradient10002" x1="-20.75" x2="-19.5" xlink:href="#linearGradient10020" y1="29" y2="18.75"/>
<linearGradient gradientUnits="userSpaceOnUse" id="linearGradient10026" x1="23.37957" x2="24.24518" xlink:href="#linearGradient10020" y1="28.36917" y2="6"/>
<radialGradient cx="28.28366" cy="47.40062" gradientTransform="scale(1.16423,.85894)" gradientUnits="userSpaceOnUse" id="radialGradient2462" r="13.80439">
<stop offset="0"/>
<stop offset="1" stop-opacity="0"/>
</radialGradient>
<radialGradient cx="24.84291" cy="35.67055" gradientUnits="userSpaceOnUse" id="radialGradient1537" r="2.06719">
<stop offset="0" stop-color="#f0f0f0"/>
<stop offset="1" stop-color="#848484"/>
</radialGradient>
<radialGradient cx="26.16295" cy="44.02253" gradientTransform="matrix(1,0,0,.18116,-2.871401e-15,36.04743)" gradientUnits="userSpaceOnUse" id="radialGradient9220" r="12.19759">
<stop offset="0" stop-color="#5b5b5b"/>
<stop offset="1" stop-color="#5b5b5b" stop-opacity="0"/>
</radialGradient>
</defs>
<path d="m26.48204,37.62156h-1.98204v-31.62156h1.98204v31.62011 .00145z" fill="#a4a4a4" stroke="#555753"/>
<path d="m26,37.62156h-1.01796v-31.62156h1.01796v31.62011 .00145z" fill="#a4a4a4"/>
<path d="m43.5,32.49998h-36v-26.99999h36v26.99999z" fill="url(#linearGradient1553)" stroke="#888a85" stroke-linejoin="round"/>
<path d="m38.36054,44.02253a12.19759,2.20971 0 1,1 -24.39518,0 12.19759,2.20971 0 1,1 24.39518,0z" fill="url(#radialGradient9220)" opacity=".39011" transform="matrix(1.74925,0,0,1.45255,-20.38301,-20.43749)"/>
<g fill="#a4a4a4" stroke="#555753" transform="matrix(1.53902,0,0,1.53902,-12.89862,-11.05731)">
<path d="m31.492,35.959-6.275-4.638-.06569.34495 4.86469,4.28905 1.476.004z" stroke="#555753"/>
<path d="m18.408,35.959 6.275-4.638-.05017.40238-4.74983,4.23162-1.475.004z" stroke="#555753"/>
</g>
<path d="m42.48351,31.5h-33.98351v-25h33.98351v25z" fill="none" stroke="url(#linearGradient10026)"/>
<path d="m37.64607,5.83768h-29.64607v2.16232c1.67137-2.34854 29.64607-2.16232 29.64607-2.16232z" opacity=".16"/>
<path d="m31,9h9v1h-9z" fill-opacity=".22807"/>
<path d="m7.08179,1.5h36.89615a1.94148,1.94148 0 0,1 1.94148,1.94148v.11705a1.94148,1.94148 0 0,1 -1.94148,1.94148h-36.89615a1.94148,1.94148 0 0,1 -1.94148-1.94148v-.11705a1.94148,1.94148 0 0,1 1.94148-1.94148" fill="url(#linearGradient9224)" stroke="#555753"/>
<path d="m31,11h9v1h-9z" fill-opacity=".22807"/>
<path d="m31,13h9v1h-9z" fill-opacity=".22807"/>
<path d="m31,15h9v1h-9z" fill-opacity=".22807"/>
<path d="m31,17h6v1h-6z" fill-opacity=".22807"/>
<path d="m11,22h23v1h-23z" fill-opacity=".22807"/>
<path d="m11,24h23v1h-23z" fill-opacity=".22807"/>
<path d="m11,26h23v1h-23z" fill-opacity=".22807"/>
<path d="m11,28h16v1h-16z" fill-opacity=".22807"/>
<path d="m49,40.71429a16.07143,11.85714 0 1,1 -32.14286,0 16.07143,11.85714 0 1,1 32.14286,0z" fill="url(#radialGradient2462)" fill-rule="evenodd" transform="matrix(.51214,0,0,.51214,2.99748,-5.77885)"/>
<g transform="matrix(.58737,0,0,.58737,30.84597,-1.30118)">
<path d="m-27.52854,18.09279c-2.56903,1.69833-3.98293,4.00504-3.98293,6.4979v2.06929c0,2.49084 1.4139,4.79822 3.98293,6.49655 2.42649,1.6039 5.63313,2.48747 9.02918,2.48747 3.39477,0 6.60141-.88356 9.02918-2.48747 2.56775-1.69833 3.98165-4.00504 3.98165-6.49655v-2.06929c0-2.49286-1.41454-4.80025-3.98165-6.4979-2.42713-1.60256-5.63377-2.48679-9.02918-2.48679s-6.60269.88424-9.02918,2.48679z" fill="#670000"/>
<path d="m-7.02443,24.45355c-1.37858-3.38654-6.05306-5.88008-11.61234-5.88008s-10.23376,2.49354-11.61234,5.88008h-.4148v2.06997c0,4.39016 5.38528,7.9487 12.02714,7.9487s12.0265-3.55854 12.0265-7.9487v-2.06997h-.41415z" fill="#a40000"/>
<path d="m-6.61027,24.45355c0,4.39084-5.38399,7.94937-12.0265,7.94937s-12.02714-3.55854-12.02714-7.94937 5.38528-7.94937 12.02714-7.94937 12.0265,3.55853 12.0265,7.94937z" fill="url(#linearGradient10012)"/>
<path d="m-6.61027,26.8331-.01541-2.16642c-1.3041,4.50078-4.23656,6.40752-7.92349,7.341v1.99442c3.99064-1.00362 7.56199-3.28874 7.9389-7.169z" fill="#204a87"/>
<path d="m-6.61027,24.45355c-.27546,5.07948-6.55775,7.39563-7.96137,7.48399l-4.06577-7.48399h12.0265 .00064z" fill="url(#linearGradient10014)"/>
<path d="m-21.15443,34.2982v-2.06929c2.2634.29475 4.33994.34668 6.58279-.21381l.02247,1.98768c-1.87942.61647-4.81959.64547-6.60526.2961v-.00068z" fill="#4e9a06"/>
<path d="m-18.63741,24.45422 4.06577,7.48331c-2.48941.94899-6.58279.29137-6.58279.29137l2.51702-7.77469z" fill="url(#linearGradient10016)"/>
<path d="m-6.875,24.375a11.75,7.75 0 1,1 -23.5,0 11.75,7.75 0 1,1 23.5,0z" display="block" fill="none" opacity=".31111" stroke="url(#linearGradient10002)" stroke-width="1.8548" transform="matrix(.94698,0,0,.8897,-.98746,2.68855)"/>
</g>
<g fill="#a4a4a4" transform="matrix(1.53902,0,0,1.53902,-12.89862,-11.05731)">
<path d="m30.015,35.956 1.477.003-6.275-4.638-.439-.014 5.238,4.648-.001.001z"/>
<path d="m19.884,35.956-1.476.003 6.275-4.638 .438-.014-5.238,4.648 .001.001z"/>
</g>
<path d="m27.83969,36.49999c0,1.29243-1.04726,2.33969-2.33969,2.33969s-2.33969-1.04726-2.33969-2.33969 1.04726-2.33969 2.33969-2.33969 2.33969,1.05076 2.33969,2.33969z" fill="url(#radialGradient1537)" stroke="#555753"/>
</svg>
